<mxfile host="65bd71144e">
    <diagram id="iV-UPgQVrYLAaqNgml9K" name="第 1 页">
        <mxGraphModel dx="652" dy="427" grid="1" gridSize="10" guides="1" tooltips="1" connect="1" arrows="1" fold="1" page="1" pageScale="1" pageWidth="827" pageHeight="1169" math="0" shadow="0">
            <root>
                <mxCell id="0"/>
                <mxCell id="1" parent="0"/>
                <mxCell id="2" value="" style="triangle;whiteSpace=wrap;html=1;rotation=-90;" vertex="1" parent="1">
                    <mxGeometry x="235" y="25" width="50" height="160" as="geometry"/>
                </mxCell>
                <mxCell id="3" value="功能" style="text;html=1;align=center;verticalAlign=middle;resizable=0;points=[];autosize=1;strokeColor=none;fillColor=none;" vertex="1" parent="1">
                    <mxGeometry x="240" y="95" width="40" height="20" as="geometry"/>
                </mxCell>
                <mxCell id="4" value="算法" style="rounded=1;whiteSpace=wrap;html=1;" vertex="1" parent="1">
                    <mxGeometry x="150" y="150" width="220" height="50" as="geometry"/>
                </mxCell>
                <mxCell id="5" value="" style="rounded=1;whiteSpace=wrap;html=1;" vertex="1" parent="1">
                    <mxGeometry x="70" y="220" width="380" height="90" as="geometry"/>
                </mxCell>
                <mxCell id="6" value="数据结构" style="text;html=1;align=center;verticalAlign=middle;resizable=0;points=[];autosize=1;strokeColor=none;fillColor=none;" vertex="1" parent="1">
                    <mxGeometry x="80" y="230" width="60" height="20" as="geometry"/>
                </mxCell>
                <mxCell id="7" value="数组" style="rounded=1;whiteSpace=wrap;html=1;" vertex="1" parent="1">
                    <mxGeometry x="80" y="260" width="50" height="30" as="geometry"/>
                </mxCell>
                <mxCell id="8" value="链表" style="rounded=1;whiteSpace=wrap;html=1;" vertex="1" parent="1">
                    <mxGeometry x="130" y="260" width="50" height="30" as="geometry"/>
                </mxCell>
                <mxCell id="9" value="栈" style="rounded=1;whiteSpace=wrap;html=1;" vertex="1" parent="1">
                    <mxGeometry x="200" y="260" width="50" height="30" as="geometry"/>
                </mxCell>
                <mxCell id="10" value="队列" style="rounded=1;whiteSpace=wrap;html=1;" vertex="1" parent="1">
                    <mxGeometry x="250" y="260" width="50" height="30" as="geometry"/>
                </mxCell>
                <mxCell id="11" value="哈希" style="rounded=1;whiteSpace=wrap;html=1;" vertex="1" parent="1">
                    <mxGeometry x="320" y="260" width="50" height="30" as="geometry"/>
                </mxCell>
                <mxCell id="12" value="树" style="rounded=1;whiteSpace=wrap;html=1;" vertex="1" parent="1">
                    <mxGeometry x="390" y="260" width="50" height="30" as="geometry"/>
                </mxCell>
            </root>
        </mxGraphModel>
    </diagram>
</mxfile>